<?xml version="1.0" encoding="utf-8"?>
<!-- Generator: Adobe Illustrator 16.0.0, SVG Export Plug-In . SVG Version: 6.00 Build 0)  -->
<!DOCTYPE svg PUBLIC "-//W3C//DTD SVG 1.1//EN" "http://www.w3.org/Graphics/SVG/1.1/DTD/svg11.dtd">
<svg version="1.1" id="Layer_1" xmlns="http://www.w3.org/2000/svg" xmlns:xlink="http://www.w3.org/1999/xlink" x="0px" y="0px"
	 width="550px" height="550px" viewBox="0 0 550 550" enable-background="new 0 0 550 550" xml:space="preserve">
<path d="M275.996,20.362c-140.628,0-254.632,114.008-254.632,254.637c0,140.623,114.004,254.64,254.632,254.64
	c140.627,0,254.645-114.018,254.645-254.64C530.641,134.37,416.619,20.362,275.996,20.362z M205.123,381.529
	c0,2.229-1.123,4.307-2.985,5.525c-1.092,0.715-2.351,1.08-3.619,1.08c-0.898,0-1.792-0.182-2.642-0.551l-91.633-39.947
	c-2.408-1.049-3.962-3.426-3.962-6.055V168.461c0-2.228,1.123-4.306,2.985-5.525c1.863-1.224,4.218-1.413,6.257-0.528l91.632,39.947
	c2.409,1.048,3.963,3.425,3.963,6.054v173.121H205.123z M329.732,341.582c0,2.629-1.559,5.006-3.962,6.055l-91.638,39.947
	c-0.845,0.369-1.743,0.551-2.642,0.551c-1.268,0-2.527-0.365-3.619-1.08c-1.862-1.219-2.985-3.297-2.985-5.525V208.409
	c0-2.628,1.559-5.006,3.962-6.054l91.637-39.947c2.052-0.885,4.398-0.691,6.262,0.528c1.862,1.22,2.984,3.298,2.984,5.525V341.582z
	 M454.356,381.529c0,2.229-1.123,4.307-2.985,5.525c-1.092,0.715-2.352,1.08-3.619,1.08c-0.894,0-1.792-0.182-2.642-0.551
	l-91.638-39.947c-2.408-1.049-3.962-3.426-3.962-6.055V168.461c0-2.228,1.122-4.306,2.985-5.525c1.862-1.22,4.218-1.413,6.261-0.528
	l91.633,39.947c2.408,1.048,3.962,3.425,3.962,6.054v173.121H454.356z"/>
</svg>
