<svg xmlns="http://www.w3.org/2000/svg" xmlns:xlink="http://www.w3.org/1999/xlink" version="1.1" x="0px" y="0px" viewBox="0 0 139 173.75" enable-background="new 0 0 139 139" xml:space="preserve"><path d="M69.499,11.665c-31.94,0-57.833,25.894-57.833,57.834c0,31.939,25.893,57.835,57.833,57.835  c31.94,0,57.836-25.896,57.836-57.835C127.335,37.559,101.438,11.665,69.499,11.665z M53.402,93.695  c0,0.506-0.255,0.978-0.678,1.255c-0.248,0.162-0.534,0.245-0.822,0.245c-0.204,0-0.407-0.041-0.6-0.125L30.49,85.997  c-0.547-0.238-0.9-0.778-0.9-1.375v-39.32c0-0.506,0.255-0.978,0.678-1.255c0.423-0.278,0.958-0.321,1.421-0.12L52.501,53  c0.547,0.238,0.9,0.778,0.9,1.375V93.695z M81.704,84.622c0,0.597-0.354,1.137-0.9,1.375L59.991,95.07  c-0.192,0.084-0.396,0.125-0.6,0.125c-0.288,0-0.574-0.083-0.822-0.245c-0.423-0.277-0.678-0.749-0.678-1.255v-39.32  c0-0.597,0.354-1.137,0.9-1.375l20.813-9.073c0.466-0.201,0.999-0.157,1.422,0.12c0.423,0.277,0.678,0.749,0.678,1.255V84.622z   M110.009,93.695c0,0.506-0.255,0.978-0.678,1.255c-0.248,0.162-0.534,0.245-0.822,0.245c-0.203,0-0.407-0.041-0.6-0.125  l-20.813-9.073c-0.547-0.238-0.9-0.778-0.9-1.375v-39.32c0-0.506,0.255-0.978,0.678-1.255c0.423-0.277,0.958-0.321,1.422-0.12  L109.108,53c0.547,0.238,0.9,0.778,0.9,1.375V93.695z"/><text x="0" y="154" fill="#000000" font-size="5px" font-weight="bold" font-family="'Helvetica Neue', Helvetica, Arial-Unicode, Arial, Sans-serif">Created by Nut Chanut</text><text x="0" y="159" fill="#000000" font-size="5px" font-weight="bold" font-family="'Helvetica Neue', Helvetica, Arial-Unicode, Arial, Sans-serif">from the Noun Project</text></svg>